<?xml version="1.0" encoding="UTF-8"?>
<svg width="782px" height="115px" viewBox="0 0 782 115" version="1.1" xmlns="http://www.w3.org/2000/svg" xmlns:xlink="http://www.w3.org/1999/xlink">
    <!-- Generator: Sketch 52.6 (67491) - http://www.bohemiancoding.com/sketch -->
    <title>Artboard Copy 3</title>
    <desc>Created with Sketch.</desc>
    <defs>
        <polygon id="path-1" points="0.491 0.589 85.7560999 0.589 85.7560999 99.9366 0.491 99.9366"></polygon>
        <polygon id="path-3" points="0.515797796 0.636224326 77.752 0.636224326 77.752 99.9997 0.515797796 99.9997"></polygon>
    </defs>
    <g id="Artboard-Copy-3" stroke="none" stroke-width="1" fill="none" fill-rule="evenodd">
        <rect x="0" y="0" width="782" height="115"></rect>
        <g id="vava-cars-logo" transform="translate(8.000000, 7.000000)">
            <path d="M142.5454,1.4865 C137.8584,1.4865 133.3304,4.0655 131.0074,8.5715 L93.7794,80.8045 C90.4504,87.2655 92.9114,95.2415 99.2774,98.6215 C101.2034,99.6435 103.2644,100.1275 105.2964,100.1275 C109.9834,100.1275 114.5114,97.5485 116.8344,93.0425 L142.5664,43.1135 L131.0714,20.8095 C127.7424,14.3485 130.2044,6.3715 136.5694,2.9925 C138.4874,1.9745 140.5414,1.4895 142.5664,1.4865 L142.5454,1.4865" id="Fill-1" fill="#4EB171"></path>
            <path d="M13,1.4241 C10.97,1.4241 8.907,1.9081 6.982,2.9301 C0.616,6.3091 -1.846,14.2871 1.485,20.7461 L38.712,92.9791 C41.035,97.4861 45.562,100.0651 50.25,100.0651 L50.272,100.0651 C48.247,100.0621 46.193,99.5761 44.275,98.5581 C37.907,95.1791 35.446,87.2031 38.775,80.7421 L50.271,58.4391 L24.539,8.5101 C22.215,4.0031 17.688,1.4241 13,1.4241" id="Fill-3" fill="#4EB171"></path>
            <path d="M87.5421,1.4241 C82.8551,1.4241 78.3271,4.0031 76.0031,8.5101 L50.2701,58.4391 L61.7651,80.7421 C65.0961,87.2031 62.6341,95.1791 56.2671,98.5581 C54.3491,99.5761 52.2951,100.0621 50.2711,100.0651 L50.2921,100.0651 C54.9801,100.0651 59.5081,97.4861 61.8311,92.9791 L99.0571,20.7461 C102.3881,14.2871 99.9261,6.3091 93.5601,2.9301 C91.6351,1.9081 89.5721,1.4241 87.5421,1.4241" id="Fill-5" fill="#4EB171"></path>
            <path d="M50.2708,58.4385 L38.7758,80.7425 C35.4468,87.2025 37.9068,95.1785 44.2738,98.5585 C46.1918,99.5765 48.2468,100.0615 50.2708,100.0645 C52.2958,100.0615 54.3498,99.5765 56.2678,98.5585 C62.6348,95.1785 65.0968,87.2025 61.7658,80.7425 L50.2708,58.4385 Z" id="Fill-7" fill="#1AA038"></path>
            <path d="M38.744,93.0415 C35.415,86.5805 37.876,78.6035 44.242,75.2245 C50.608,71.8455 58.469,74.3435 61.798,80.8045 C65.128,87.2655 62.666,95.2425 56.3,98.6205 C49.934,102.0005 42.073,99.5025 38.744,93.0415" id="Fill-9" fill="#018738"></path>
            <path d="M142.5883,1.4865 L142.5673,1.4865 C144.5923,1.4895 146.6463,1.9745 148.5643,2.9925 C154.9293,6.3715 157.3913,14.3485 154.0623,20.8095 L142.5673,43.1135 L168.2993,93.0425 C170.6223,97.5485 175.1503,100.1275 179.8373,100.1275 C181.8693,100.1275 183.9303,99.6435 185.8563,98.6215 C192.2223,95.2415 194.6833,87.2655 191.3543,80.8045 L154.1263,8.5715 C151.8033,4.0655 147.2753,1.4865 142.5883,1.4865" id="Fill-11" fill="#4EB171"></path>
            <path d="M142.5669,1.4866 C140.5419,1.4896 138.4879,1.9746 136.5699,2.9926 C130.2029,6.3716 127.7429,14.3486 131.0719,20.8096 L142.5669,43.1126 L154.0619,20.8096 C157.3909,14.3486 154.9289,6.3716 148.5639,2.9926 C146.6459,1.9746 144.5919,1.4896 142.5669,1.4866" id="Fill-13" fill="#1AA038"></path>
            <path d="M154.0942,8.5099 C157.4232,14.9709 154.9622,22.9469 148.5962,26.3269 C142.2292,29.7049 134.3692,27.2069 131.0402,20.7469 C127.7092,14.2859 130.1712,6.3089 136.5382,2.9309 C142.9042,-0.4491 150.7642,2.0489 154.0942,8.5099" id="Fill-15" fill="#018738"></path>
            <path d="M326.723,1.4865 C322.036,1.4865 317.508,4.0655 315.185,8.5715 L277.956,80.8045 C274.628,87.2655 277.089,95.2415 283.455,98.6215 C285.381,99.6435 287.442,100.1275 289.474,100.1275 C294.161,100.1275 298.689,97.5485 301.012,93.0425 L326.744,43.1135 L315.249,20.8095 C311.92,14.3485 314.381,6.3715 320.747,2.9925 C322.665,1.9745 324.719,1.4895 326.744,1.4865 L326.723,1.4865" id="Fill-17" fill="#4EB171"></path>
            <path d="M326.7658,1.4865 L326.7448,1.4865 C328.7698,1.4895 330.8228,1.9745 332.7418,2.9925 C339.1068,6.3715 341.5688,14.3485 338.2398,20.8095 L326.7448,43.1135 L352.4768,93.0425 C354.7998,97.5485 359.3278,100.1275 364.0148,100.1275 C366.0468,100.1275 368.1078,99.6435 370.0338,98.6215 C376.3998,95.2415 378.8608,87.2655 375.5318,80.8045 L338.3038,8.5715 C335.9808,4.0655 331.4528,1.4865 326.7658,1.4865" id="Fill-19" fill="#4EB171"></path>
            <path d="M326.7444,1.4866 C324.7194,1.4896 322.6654,1.9746 320.7474,2.9926 C314.3804,6.3716 311.9204,14.3486 315.2494,20.8096 L326.7444,43.1136 L338.2394,20.8096 C341.5684,14.3486 339.1064,6.3716 332.7414,2.9926 C330.8224,1.9746 328.7694,1.4896 326.7444,1.4866" id="Fill-21" fill="#1AA038"></path>
            <path d="M338.2713,8.5099 C341.6003,14.9709 339.1393,22.9469 332.7733,26.3269 C326.4063,29.7049 318.5473,27.2069 315.2173,20.7469 C311.8873,14.2859 314.3483,6.3089 320.7153,2.9309 C327.0813,-0.4491 334.9423,2.0489 338.2713,8.5099" id="Fill-23" fill="#018738"></path>
            <path d="M273.3369,1.4241 C268.6499,1.4241 264.1219,4.0031 261.7989,8.5101 L236.0649,58.4391 L247.5619,80.7421 C250.8909,87.2031 248.4289,95.1791 242.0639,98.5581 C240.1459,99.5761 238.0899,100.0621 236.0659,100.0651 L236.0869,100.0651 C240.7749,100.0651 245.3029,97.4861 247.6259,92.9791 L284.8529,20.7461 C288.1829,14.2871 285.7209,6.3091 279.3549,2.9301 C277.4309,1.9081 275.3679,1.4241 273.3369,1.4241" id="Fill-25" fill="#4EB171"></path>
            <path d="M198.7954,1.4241 C196.7644,1.4241 194.7014,1.9081 192.7774,2.9301 C186.4104,6.3091 183.9494,14.2871 187.2794,20.7461 L224.5064,92.9791 C226.8294,97.4861 231.3574,100.0651 236.0444,100.0651 L236.0664,100.0651 C234.0424,100.0621 231.9864,99.5761 230.0684,98.5581 C223.7024,95.1791 221.2404,87.2031 224.5704,80.7421 L236.0664,58.4391 L210.3334,8.5101 C208.0104,4.0031 203.4824,1.4241 198.7954,1.4241" id="Fill-27" fill="#4EB171"></path>
            <path d="M236.0656,58.4383 L224.5706,80.7423 C221.2416,87.2023 223.7036,95.1803 230.0686,98.5583 C231.9866,99.5773 234.0416,100.0613 236.0656,100.0643 C238.0906,100.0613 240.1456,99.5773 242.0636,98.5583 C248.4296,95.1803 250.8916,87.2023 247.5606,80.7423 L236.0656,58.4383 Z" id="Fill-29" fill="#1AA038"></path>
            <path d="M224.5388,93.0415 C221.2098,86.5805 223.6698,78.6035 230.0368,75.2245 C236.4028,71.8455 244.2638,74.3435 247.5928,80.8045 C250.9228,87.2655 248.4618,95.2425 242.0948,98.6205 C235.7288,102.0005 227.8678,99.5025 224.5388,93.0415" id="Fill-31" fill="#018738"></path>
            <path d="M526.4738,1.3015 C526.8068,1.2315 527.1388,1.1605 527.4728,1.1175 C527.1358,1.1595 526.8058,1.2335 526.4738,1.3015" id="Fill-33" fill="#00B3D4"></path>
            <path d="M524.6667,1.8098 C525.0837,1.6568 525.5037,1.5228 525.9267,1.4148 C525.4987,1.5218 525.0827,1.6598 524.6667,1.8098" id="Fill-35" fill="#00B3D4"></path>
            <path d="M529.0637,1.0087 C529.0007,1.0087 528.9387,1.0207 528.8747,1.0217 C528.9457,1.0207 529.0157,1.0087 529.0857,1.0087 L529.0637,1.0087 Z" id="Fill-37" fill="#00B3D4"></path>
            <path d="M530.6982,1.1176 C531.0332,1.1606 531.3662,1.2316 531.6992,1.3016 C531.3662,1.2336 531.0362,1.1596 530.6982,1.1176" id="Fill-39" fill="#00B3D4"></path>
            <path d="M529.0856,1.0087 C529.1556,1.0087 529.2256,1.0207 529.2966,1.0217 C529.2326,1.0207 529.1706,1.0087 529.1066,1.0087 L529.0856,1.0087 Z" id="Fill-41" fill="#00B3D4"></path>
            <path d="M540.7266,8.1438 C539.1706,5.1258 536.6236,2.9898 533.7096,1.8818 C534.1866,2.0668 534.6606,2.2788 535.1246,2.5248 C541.5356,5.9288 544.0156,13.9618 540.6616,20.4688 L529.7766,41.5888 L540.6616,20.4688 C544.0146,13.9618 541.5356,5.9288 535.1246,2.5248 C534.6596,2.2788 534.1866,2.0668 533.7086,1.8818 C533.7086,1.8818 533.7086,1.8818 533.7096,1.8818 C533.6426,1.8568 533.5746,1.8358 533.5076,1.8108 C533.5086,1.8118 533.5096,1.8118 533.5106,1.8118 C533.0906,1.6568 532.6676,1.5228 532.2416,1.4138 C532.2426,1.4138 532.2426,1.4138 532.2426,1.4148 C532.0626,1.3688 531.8806,1.3398 531.6996,1.3018 C531.7016,1.3028 531.7036,1.3028 531.7046,1.3028 C531.3686,1.2328 531.0336,1.1608 530.6966,1.1178 L530.6986,1.1178 C530.2306,1.0578 529.7626,1.0298 529.2966,1.0218 C529.3006,1.0218 529.3056,1.0228 529.3096,1.0228 C529.2356,1.0208 529.1606,1.0088 529.0856,1.0088 C529.0106,1.0088 528.9356,1.0208 528.8616,1.0228 C528.8656,1.0228 528.8706,1.0218 528.8746,1.0218 C528.4086,1.0298 527.9406,1.0578 527.4726,1.1178 L527.4736,1.1178 C527.1386,1.1608 526.8036,1.2318 526.4696,1.3028 C526.4716,1.3018 526.4726,1.3018 526.4736,1.3018 C526.2916,1.3398 526.1086,1.3688 525.9266,1.4148 L525.9276,1.4148 C525.5036,1.5228 525.0826,1.6568 524.6646,1.8108 C524.6656,1.8098 524.6656,1.8098 524.6666,1.8098 C524.5986,1.8348 524.5286,1.8568 524.4596,1.8828 C524.4596,1.8828 524.4606,1.8828 524.4606,1.8828 C523.9826,2.0678 523.5106,2.2788 523.0466,2.5248 C518.6386,4.8658 516.0896,9.3928 516.0166,14.1088 C516.0896,9.3928 518.6386,4.8648 523.0466,2.5248 C523.5096,2.2788 523.9826,2.0678 524.4596,1.8828 C521.5466,2.9908 519.0006,5.1258 517.4446,8.1438 L479.9526,80.8878 C476.6006,87.3948 479.0786,95.4268 485.4906,98.8308 C487.4296,99.8598 489.5056,100.3468 491.5516,100.3468 C496.2716,100.3468 500.8316,97.7498 503.1706,93.2118 L529.0856,42.9298 L529.0856,42.9308 L529.0856,42.9298 L554.9996,93.2118 C557.3396,97.7498 561.8986,100.3468 566.6196,100.3468 C568.6656,100.3468 570.7416,99.8598 572.6806,98.8308 C579.0916,95.4268 581.5706,87.3948 578.2176,80.8878 L540.7266,8.1438 Z" id="Fill-43" fill="#00B3D4"></path>
            <path d="M532.2429,1.4146 C532.6679,1.5236 533.0899,1.6566 533.5079,1.8116 C533.0919,1.6606 532.6719,1.5216 532.2429,1.4146" id="Fill-45" fill="#00B3D4"></path>
            <path d="M433.7174,25.2689 C439.3404,25.2689 444.5404,27.1069 448.7544,30.2109 C453.2214,33.5029 459.3094,33.5099 463.8754,30.3549 C470.2604,25.9429 470.6144,16.5819 464.5334,11.7569 C455.8044,4.8279 444.7004,0.7679 432.6584,1.0199 C406.8834,1.5599 385.3354,22.5029 384.1014,48.2529 C384.0254,49.8139 384.0524,51.3539 384.1204,52.8819 C384.2364,55.5319 384.5884,58.1179 385.1094,60.6429 C385.1684,61.2229 385.2584,61.8079 385.4014,62.3959 C386.5654,67.1719 388.4734,71.8929 391.1904,76.4179 C391.2534,76.5239 391.3274,76.6199 391.3904,76.7239 C402.1814,94.3929 423.4074,103.5929 443.6564,99.3029 L443.6614,99.3189 C450.9564,97.8269 457.6854,94.7649 463.4384,90.4479 C470.3914,85.2299 469.8974,74.6149 462.6044,69.8839 C458.5894,67.2789 453.3454,67.4979 449.6164,70.4979 C445.8594,73.5199 441.2174,75.4609 436.1574,75.9479 L436.1334,75.8759 C435.7904,75.9199 435.4464,75.9719 435.1024,75.9909 C426.2774,76.4649 417.6004,72.1639 412.6184,64.7899 C412.5914,64.7499 412.5654,64.7089 412.5384,64.6689 C411.2164,62.6779 410.1384,60.5169 409.4164,58.2069 L409.4144,58.2009 C409.1684,57.4149 408.9634,56.6139 408.8034,55.7959 C408.4014,53.7399 408.2514,51.7159 408.3234,49.7489 C408.8184,36.1659 420.0174,25.2689 433.7174,25.2689" id="Fill-47" fill="#00B3D4"></path>
            <path d="M592.491,13.5891 L592.491,87.1751 C592.491,94.1261 598.13,99.7611 605.083,99.7611 C612.044,99.7611 617.683,94.1261 617.683,87.1751 L617.683,26.1751 L605.083,26.1751 C598.13,26.1751 592.491,20.5401 592.491,13.5891" id="Fill-49" fill="#00B3D4"></path>
            <g id="Group-53" transform="translate(592.000000, 0.411000)">
                <mask id="mask-2" fill="white">
                    <use xlink:href="#path-1"></use>
                </mask>
                <g id="Clip-52"></g>
                <path d="M51.165,42.0936 C51.056,42.0686 50.947,42.0536 50.838,42.0306 C50.947,42.0536 51.056,42.0686 51.165,42.0936 Z M52.642,42.5426 C52.579,42.5186 52.519,42.4896 52.456,42.4676 C52.519,42.4896 52.579,42.5196 52.642,42.5426 Z M54.079,43.1806 C53.951,43.1146 53.824,43.0426 53.693,42.9806 C53.824,43.0436 53.951,43.1146 54.079,43.1806 Z M49.849,41.8626 C49.7,41.8436 49.551,41.8336 49.402,41.8196 C49.551,41.8336 49.7,41.8436 49.849,41.8626 Z M55.292,43.8976 C55.157,43.8066 55.022,43.7176 54.884,43.6326 C55.022,43.7176 55.157,43.8066 55.292,43.8976 Z M56.404,44.7316 C56.279,44.6266 56.151,44.5266 56.023,44.4276 C56.151,44.5266 56.279,44.6256 56.404,44.7316 Z M57.423,45.6886 C57.326,45.5856 57.222,45.4936 57.123,45.3946 C57.222,45.4936 57.326,45.5856 57.423,45.6886 Z M68.466,60.2026 L66.131,57.1036 L68.466,60.2026 C76.531,54.1406 81.759,44.5436 81.759,33.7586 C81.759,15.4706 66.741,0.5886 48.28,0.5886 L13.083,0.5886 C6.13,0.5886 0.491,6.2236 0.491,13.1776 C0.491,20.1286 6.13,25.7636 13.083,25.7636 L25.682,25.7636 L48.28,25.7636 C52.849,25.7636 56.561,29.3486 56.561,33.7586 C56.561,38.1686 52.849,41.7566 48.28,41.7566 L48.266,41.7526 L48.266,41.7566 C48.345,41.7566 48.423,41.7686 48.501,41.7696 C45.811,41.7206 43.085,42.5166 40.761,44.2436 C37.682,46.5366 35.682,50.2056 35.682,54.3396 C35.682,57.1566 36.611,59.7586 38.174,61.8516 L38.207,61.8996 C38.207,61.8996 38.209,61.9006 38.209,61.9016 C38.211,61.9036 38.215,61.9076 38.215,61.9126 L63.097,94.9206 C65.568,98.2056 69.342,99.9366 73.169,99.9366 C75.804,99.9366 78.464,99.1146 80.735,97.4046 C86.294,93.2246 87.406,85.3346 83.222,79.7796 L68.466,60.2026 Z" id="Fill-51" fill="#00B3D4" mask="url(#mask-2)"></path>
            </g>
            <g id="Group-56" transform="translate(688.000000, 0.411000)">
                <mask id="mask-4" fill="white">
                    <use xlink:href="#path-3"></use>
                </mask>
                <g id="Clip-55"></g>
                <path d="M24.4268,29.0697 C24.4488,28.9247 24.4918,28.7797 24.5608,28.6377 C24.5208,28.7847 24.4718,28.9257 24.4268,29.0697 M65.0088,46.7907 C58.3328,42.4097 50.0628,39.9587 42.0548,37.5837 C37.0558,36.1007 32.3378,34.7017 28.7038,33.0347 C27.3728,32.4247 26.4458,31.8927 25.7908,31.4547 C24.9978,30.8117 24.4618,30.0937 24.4128,29.3887 C24.4458,29.1707 24.4948,28.9197 24.5758,28.6067 C24.5818,28.5937 24.5848,28.5797 24.5918,28.5667 C24.5988,28.5557 24.5858,28.5867 24.5858,28.5867 C24.6558,28.3387 25.2098,27.7067 26.4408,27.0187 C31.6428,24.1177 43.1138,23.0687 57.0118,27.2577 C63.3188,29.1597 69.9688,25.5897 71.8688,19.2847 C73.7688,12.9817 70.1988,6.3347 63.8928,4.4317 C45.2428,-1.1913 26.9058,-0.5343 14.8428,6.1887 C8.1678,9.9087 3.4728,15.4067 1.5478,21.9377 C1.4088,22.5047 1.1348,23.8167 0.9108,25.4287 C-0.8002,35.7447 3.0718,44.7257 12.0508,50.9377 C18.6498,55.5087 27.1038,58.0137 35.2788,60.4407 C41.6278,62.3217 48.1888,64.2697 51.9258,66.7237 C54.1308,68.1677 54.0608,68.6017 53.8248,70.0297 C53.8878,69.6457 53.9618,69.3127 54.0438,69.0177 C53.9708,69.3477 53.8958,69.6777 53.8258,70.0337 L53.8258,70.0297 C53.5198,71.8527 52.8628,72.8727 51.3888,73.7827 C45.4988,77.4197 31.1908,76.8167 16.5768,72.3057 C10.2908,70.3647 3.6148,73.8897 1.6758,80.1797 C-0.2682,86.4727 3.2578,93.1447 9.5518,95.0867 C15.7428,96.9997 27.3908,99.9997 39.4668,99.9997 C47.9968,99.9997 56.7448,98.5007 63.9238,94.0607 C70.7068,89.8697 75.1348,83.5977 76.9098,75.8817 C77.0148,75.4997 77.1028,75.1107 77.1828,74.7187 C77.1968,74.6397 77.2218,74.5657 77.2368,74.4867 C77.2278,74.5297 77.2138,74.5707 77.2038,74.6137 C77.2498,74.3797 77.3098,74.1507 77.3458,73.9137 C79.1748,62.8447 74.7948,53.2107 65.0088,46.7907" id="Fill-54" fill="#00B3D4" mask="url(#mask-4)"></path>
            </g>
        </g>
    </g>
</svg>